<?xml version="1.0" standalone="no"?>
<!DOCTYPE svg PUBLIC "-//W3C//DTD SVG 20010904//EN"
 "http://www.w3.org/TR/2001/REC-SVG-20010904/DTD/svg10.dtd">
<svg version="1.0" xmlns="http://www.w3.org/2000/svg"
 width="1024.000000pt" height="1024.000000pt" viewBox="0 0 1024.000000 1024.000000"
 preserveAspectRatio="xMidYMid meet">
<metadata>
Created by potrace 1.11, written by Peter Selinger 2001-2013
</metadata>
<g transform="translate(0.000000,1024.000000) scale(0.100000,-0.100000)"
fill="#000000" stroke="none">
<path d="M6191 8940 c-4 -3 -7 -97 -6 -210 0 -113 -1 -212 -3 -221 -3 -15 -15
-13 -95 13 -96 31 -120 40 -163 60 -14 7 -36 11 -50 10 -13 -1 -24 2 -24 8 0
5 -16 12 -35 16 -19 3 -35 10 -35 16 0 5 -5 6 -10 3 -6 -4 -16 -2 -23 3 -10 7
-72 32 -97 37 -3 1 -16 6 -30 12 -38 17 -64 27 -75 28 -5 1 -32 12 -58 23 -27
12 -53 20 -58 16 -5 -3 -9 -1 -9 5 0 5 -14 13 -32 16 -18 4 -39 11 -48 16 -14
8 -66 30 -82 34 -5 2 -11 4 -15 5 -5 2 -12 4 -18 5 -5 1 -23 7 -40 15 -59 25
-137 54 -152 56 -7 1 -13 -1 -13 -6 0 -4 -16 -11 -35 -14 -19 -4 -35 -12 -35
-18 0 -6 -2 -9 -6 -6 -3 3 -35 -5 -72 -19 -37 -13 -83 -29 -102 -35 -19 -5
-39 -14 -45 -18 -5 -4 -28 -13 -50 -19 -22 -7 -49 -16 -60 -21 -30 -12 -89
-35 -95 -36 -3 0 -18 -6 -33 -12 -16 -7 -34 -12 -42 -12 -8 0 -17 -5 -20 -10
-4 -6 -11 -8 -16 -5 -5 4 -9 2 -9 -3 0 -6 -17 -13 -37 -17 -21 -4 -44 -12 -52
-18 -8 -7 -16 -10 -18 -8 -4 3 -44 -10 -88 -30 -25 -10 -95 -36 -154 -55 -24
-7 -49 -18 -55 -23 -6 -5 -27 -12 -46 -16 -19 -4 -41 -12 -49 -19 -8 -6 -17
-10 -20 -10 -3 1 -16 -2 -29 -7 -13 -5 -30 -9 -38 -9 -8 0 -14 -4 -14 -8 0 -5
-6 -9 -12 -10 -35 -3 -108 -26 -108 -34 0 -5 -4 -7 -9 -3 -5 3 -12 1 -16 -5
-3 -5 -12 -10 -20 -10 -8 0 -26 -5 -42 -12 -15 -7 -32 -13 -38 -13 -5 -1 -21
-6 -35 -12 -45 -20 -145 -58 -152 -58 -3 0 -10 -3 -14 -7 -4 -5 -14 -8 -23 -8
-9 0 -29 -7 -45 -15 -16 -9 -37 -17 -45 -19 -9 -2 -25 -6 -36 -10 -11 -5 -42
-16 -70 -26 -27 -10 -59 -22 -70 -26 -11 -4 -23 -8 -27 -8 -3 -1 -10 -4 -14
-8 -4 -5 -14 -8 -23 -8 -9 -1 -34 -9 -56 -20 -22 -11 -47 -19 -55 -20 -9 0
-24 -6 -35 -14 -11 -7 -36 -17 -55 -21 -19 -4 -39 -10 -45 -14 -5 -3 -12 -6
-15 -7 -3 0 -18 -6 -33 -12 -16 -7 -34 -12 -42 -12 -8 0 -17 -5 -20 -11 -4 -6
-13 -8 -21 -5 -8 3 -14 2 -14 -3 0 -5 -10 -11 -22 -14 -30 -7 -135 -44 -175
-63 -17 -7 -37 -14 -45 -14 -8 0 -30 -9 -51 -19 -20 -10 -49 -22 -64 -27 -16
-4 -30 -8 -33 -9 -17 -6 -48 -18 -70 -28 -14 -6 -27 -11 -30 -12 -3 0 -23 -7
-45 -14 -22 -7 -46 -14 -53 -16 -7 -3 -15 -4 -18 -4 -4 0 -10 -3 -13 -8 -3 -6
-24 -14 -46 -20 -60 -16 -139 -47 -146 -57 -4 -5 -14 -6 -23 -3 -9 4 -16 3
-16 -2 0 -4 -38 -20 -85 -36 -47 -15 -88 -32 -90 -36 -3 -4 -23 -10 -45 -14
-22 -4 -40 -11 -40 -15 0 -5 -9 -7 -20 -5 -11 2 -20 0 -20 -5 0 -5 -16 -12
-35 -16 -19 -3 -35 -10 -35 -16 0 -5 -6 -8 -12 -7 -13 2 -33 -4 -78 -24 -28
-12 -25 -11 -65 -22 -16 -4 -40 -14 -51 -22 -12 -8 -26 -13 -30 -12 -5 1 -22
-3 -39 -10 -16 -7 -34 -14 -40 -15 -5 -1 -15 -5 -21 -8 -6 -4 -45 -18 -88 -32
-42 -14 -83 -29 -89 -33 -7 -4 -14 -8 -17 -8 -6 -1 -80 -25 -100 -32 -8 -4
-18 -5 -22 -5 -5 1 -8 -2 -8 -7 0 -5 -17 -12 -37 -16 -21 -4 -40 -10 -43 -14
-3 -4 -34 -17 -70 -28 -36 -12 -78 -27 -95 -34 -16 -7 -32 -13 -35 -14 -3 -1
-16 -6 -30 -12 l-25 -11 30 -12 c17 -6 44 -18 60 -25 17 -8 48 -19 70 -25 22
-6 54 -18 72 -26 17 -8 38 -14 47 -14 9 0 16 -4 16 -10 0 -5 3 -9 8 -8 4 2 21
-2 37 -9 53 -20 70 -26 75 -28 3 -1 24 -7 47 -13 23 -7 45 -17 48 -22 4 -6 10
-8 15 -5 5 3 11 1 15 -5 3 -5 17 -10 31 -10 13 0 24 -5 24 -11 0 -5 4 -8 9 -5
5 4 22 0 38 -8 30 -16 61 -28 78 -31 12 -1 40 -12 75 -28 14 -6 30 -12 35 -13
14 -1 67 -22 88 -34 10 -6 22 -8 27 -5 6 4 10 2 10 -4 0 -5 18 -12 40 -16 22
-4 40 -11 40 -16 0 -5 3 -8 8 -7 8 1 4 3 122 -42 47 -17 107 -38 133 -45 26
-7 53 -18 60 -23 7 -5 28 -13 47 -17 19 -4 44 -14 55 -21 11 -8 25 -14 32 -14
6 0 24 -5 40 -12 15 -6 30 -12 33 -12 10 -2 75 -28 91 -36 9 -5 32 -11 51 -15
l33 -6 0 -2581 c0 -1484 4 -2582 9 -2585 5 -3 821 -6 1815 -6 l1806 0 5 874 5
874 420 0 420 -1 1 -867 c1 -477 4 -870 7 -873 5 -5 1244 -9 1302 -5 8 1 11
804 10 2577 0 1706 3 2578 10 2583 11 9 66 25 78 23 4 -1 7 2 7 8 0 5 16 12
35 16 19 3 35 10 35 16 0 5 4 7 10 3 5 -3 17 -1 27 4 19 10 85 36 93 36 3 0
10 3 15 7 6 3 27 9 48 13 20 4 37 11 37 15 0 4 21 13 48 20 26 7 53 18 61 24
8 6 16 9 18 7 4 -3 37 8 88 29 11 5 37 14 58 20 22 7 51 18 65 26 15 8 34 14
42 14 9 0 24 6 35 14 11 7 36 17 55 21 19 4 40 10 45 14 6 3 12 6 15 6 3 0 19
5 35 12 45 17 69 26 75 28 19 7 49 18 70 28 29 12 26 11 65 22 17 4 50 16 75
25 58 23 83 33 93 35 4 2 10 4 15 5 4 2 12 4 17 5 6 0 25 9 42 18 18 10 34 17
35 17 4 -2 40 10 68 23 14 6 27 11 30 12 76 21 97 28 105 35 6 4 29 14 53 21
23 6 42 15 42 19 0 8 -30 23 -80 40 -19 7 -44 16 -55 20 -11 5 -38 14 -60 21
-22 6 -44 15 -50 19 -9 7 -74 27 -100 31 -5 1 -19 8 -30 15 -11 8 -27 14 -37
14 -10 0 -18 5 -18 11 0 6 -9 8 -20 4 -11 -4 -20 -2 -20 4 0 6 -6 11 -14 11
-8 0 -27 5 -43 12 -15 6 -30 12 -33 13 -15 5 -51 18 -95 35 -27 11 -65 23 -82
26 -18 4 -33 10 -33 14 0 4 -16 11 -35 14 -19 4 -35 11 -35 16 0 6 -3 9 -7 8
-13 -3 -97 22 -123 36 -14 8 -42 17 -62 21 -21 4 -38 11 -38 16 0 5 -3 8 -7 7
-5 -1 -21 4 -36 10 -16 7 -32 12 -36 12 -9 0 -107 37 -132 50 -9 5 -33 12 -53
15 -20 4 -36 12 -36 18 0 6 -3 7 -7 4 -3 -4 -11 -3 -17 2 -10 8 -76 29 -101
32 -5 0 -14 4 -20 9 -5 4 -46 20 -90 35 -44 15 -86 32 -92 37 -7 6 -13 7 -13
3 0 -4 -6 -3 -12 3 -7 5 -29 13 -48 17 -19 4 -44 14 -55 21 -11 8 -27 14 -37
14 -10 0 -18 4 -18 9 0 5 -9 7 -20 4 -12 -3 -20 0 -20 8 0 7 -3 10 -6 7 -3 -3
-40 8 -82 24 -42 17 -81 31 -87 32 -13 4 -45 16 -70 27 -11 4 -47 17 -80 28
l-60 20 -3 445 c-2 346 -5 446 -15 447 -38 5 -1159 4 -1166 -1z m315 -4343 l2
-427 -308 0 -307 0 0 423 c0 232 4 424 8 427 4 3 142 5 306 5 l298 0 1 -428z
m-2315 -1594 c4 -35 3 -827 -1 -833 -3 -5 -142 -8 -309 -7 l-304 2 1 420 c0
231 1 421 1 423 2 6 611 1 612 -5z"/>
</g>
</svg>
